<svg xmlns="http://www.w3.org/2000/svg" width="1000" height="230" viewBox="0 0 1000 230"><rect width="1000" height="230" rx="10" fill="#0d1117"/><rect x="2" y="2" width="996" height="226" rx="9" fill="none" stroke="#303d43"/><text x="36" y="64" fill="#7ee787" font-family="monospace" font-weight="bold" font-size="55">MANIAT1K</text><text x="750" y="40" fill="#7ee787" font-family="monospace" font-size="15">DEVOPS / DATOS</text><text x="750" y="60" fill="#c9d1d9" font-family="monospace" font-size="15">AUTOMATIZACIÓN</text><text x="750" y="80" fill="#c9d1d9" font-family="monospace" font-size="15">LINUX / CÓDIGO ABIERTO</text><rect x="36" y="113" width="19" height="20" fill="#0e4429" opacity=".5"/><rect x="57" y="113" width="19" height="20" fill="#111b18" opacity="1"/><rect x="78" y="113" width="19" height="20" fill="#27342d" opacity="1"/><rect x="99" y="113" width="19" height="20" fill="#7ee787" opacity="1"/><rect x="120" y="113" width="19" height="20" fill="#39d353" opacity="1"/><rect x="141" y="113" width="19" height="20" fill="#26a641" opacity="1"/><rect x="162" y="113" width="19" height="20" fill="#006d32" opacity="1"/><rect x="183" y="113" width="19" height="20" fill="#7ee787" opacity="1"/><rect x="204" y="113" width="19" height="20" fill="#39d353" opacity="1"/><rect x="225" y="113" width="19" height="20" fill="#26a641" opacity=".5"/><rect x="246" y="113" width="19" height="20" fill="#006d32" opacity="1"/><rect x="267" y="113" width="19" height="20" fill="#0e4429" opacity="1"/><rect x="288" y="113" width="19" height="20" fill="#111b18" opacity="1"/><rect x="309" y="113" width="19" height="20" fill="#27342d" opacity="1"/><rect x="330" y="113" width="19" height="20" fill="#006d32" opacity="1"/><rect x="351" y="113" width="19" height="20" fill="#0e4429" opacity="1"/><rect x="372" y="113" width="19" height="20" fill="#111b18" opacity="1"/><rect x="393" y="113" width="19" height="20" fill="#27342d" opacity="1"/><rect x="414" y="113" width="19" height="20" fill="#7ee787" opacity=".5"/><rect x="435" y="113" width="19" height="20" fill="#39d353" opacity="1"/><rect x="456" y="113" width="19" height="20" fill="#26a641" opacity="1"/><rect x="477" y="113" width="19" height="20" fill="#27342d" opacity="1"/><rect x="498" y="113" width="19" height="20" fill="#7ee787" opacity="1"/><rect x="519" y="113" width="19" height="20" fill="#39d353" opacity="1"/><rect x="540" y="113" width="19" height="20" fill="#26a641" opacity="1"/><rect x="561" y="113" width="19" height="20" fill="#006d32" opacity="1"/><rect x="582" y="113" width="19" height="20" fill="#0e4429" opacity="1"/><rect x="603" y="113" width="19" height="20" fill="#111b18" opacity=".5"/><rect x="624" y="113" width="19" height="20" fill="#26a641" opacity="1"/><rect x="645" y="113" width="19" height="20" fill="#006d32" opacity="1"/><rect x="666" y="113" width="19" height="20" fill="#0e4429" opacity="1"/><rect x="687" y="113" width="19" height="20" fill="#111b18" opacity="1"/><rect x="708" y="113" width="19" height="20" fill="#27342d" opacity="1"/><rect x="729" y="113" width="19" height="20" fill="#7ee787" opacity="1"/><rect x="750" y="113" width="19" height="20" fill="#39d353" opacity="1"/><rect x="771" y="113" width="19" height="20" fill="#111b18" opacity="1"/><rect x="792" y="113" width="19" height="20" fill="#27342d" opacity=".5"/><rect x="813" y="113" width="19" height="20" fill="#7ee787" opacity="1"/><rect x="834" y="113" width="19" height="20" fill="#39d353" opacity="1"/><rect x="855" y="113" width="19" height="20" fill="#26a641" opacity="1"/><rect x="876" y="113" width="19" height="20" fill="#006d32" opacity="1"/><rect x="897" y="113" width="19" height="20" fill="#0e4429" opacity="1"/><rect x="918" y="113" width="19" height="20" fill="#39d353" opacity="1"/><rect x="939" y="113" width="19" height="20" fill="#26a641" opacity="1"/><rect x="36" y="136" width="19" height="20" fill="#006d32" opacity="1"/><rect x="57" y="136" width="19" height="20" fill="#0e4429" opacity=".5"/><rect x="78" y="136" width="19" height="20" fill="#111b18" opacity="1"/><rect x="99" y="136" width="19" height="20" fill="#27342d" opacity="1"/><rect x="120" y="136" width="19" height="20" fill="#7ee787" opacity="1"/><rect x="141" y="136" width="19" height="20" fill="#0e4429" opacity="1"/><rect x="162" y="136" width="19" height="20" fill="#111b18" opacity="1"/><rect x="183" y="136" width="19" height="20" fill="#27342d" opacity="1"/><rect x="204" y="136" width="19" height="20" fill="#7ee787" opacity="1"/><rect x="225" y="136" width="19" height="20" fill="#39d353" opacity="1"/><rect x="246" y="136" width="19" height="20" fill="#26a641" opacity=".5"/><rect x="267" y="136" width="19" height="20" fill="#006d32" opacity="1"/><rect x="288" y="136" width="19" height="20" fill="#7ee787" opacity="1"/><rect x="309" y="136" width="19" height="20" fill="#39d353" opacity="1"/><rect x="330" y="136" width="19" height="20" fill="#26a641" opacity="1"/><rect x="351" y="136" width="19" height="20" fill="#006d32" opacity="1"/><rect x="372" y="136" width="19" height="20" fill="#0e4429" opacity="1"/><rect x="393" y="136" width="19" height="20" fill="#111b18" opacity="1"/><rect x="414" y="136" width="19" height="20" fill="#27342d" opacity="1"/><rect x="435" y="136" width="19" height="20" fill="#006d32" opacity=".5"/><rect x="456" y="136" width="19" height="20" fill="#0e4429" opacity="1"/><rect x="477" y="136" width="19" height="20" fill="#111b18" opacity="1"/><rect x="498" y="136" width="19" height="20" fill="#27342d" opacity="1"/><rect x="519" y="136" width="19" height="20" fill="#7ee787" opacity="1"/><rect x="540" y="136" width="19" height="20" fill="#39d353" opacity="1"/><rect x="561" y="136" width="19" height="20" fill="#26a641" opacity="1"/><rect x="582" y="136" width="19" height="20" fill="#27342d" opacity="1"/><rect x="603" y="136" width="19" height="20" fill="#7ee787" opacity="1"/><rect x="624" y="136" width="19" height="20" fill="#39d353" opacity=".5"/><rect x="645" y="136" width="19" height="20" fill="#26a641" opacity="1"/><rect x="666" y="136" width="19" height="20" fill="#006d32" opacity="1"/><rect x="687" y="136" width="19" height="20" fill="#0e4429" opacity="1"/><rect x="708" y="136" width="19" height="20" fill="#111b18" opacity="1"/><rect x="729" y="136" width="19" height="20" fill="#26a641" opacity="1"/><rect x="750" y="136" width="19" height="20" fill="#006d32" opacity="1"/><rect x="771" y="136" width="19" height="20" fill="#0e4429" opacity="1"/><rect x="792" y="136" width="19" height="20" fill="#111b18" opacity="1"/><rect x="813" y="136" width="19" height="20" fill="#27342d" opacity=".5"/><rect x="834" y="136" width="19" height="20" fill="#7ee787" opacity="1"/><rect x="855" y="136" width="19" height="20" fill="#39d353" opacity="1"/><rect x="876" y="136" width="19" height="20" fill="#111b18" opacity="1"/><rect x="897" y="136" width="19" height="20" fill="#27342d" opacity="1"/><rect x="918" y="136" width="19" height="20" fill="#7ee787" opacity="1"/><rect x="939" y="136" width="19" height="20" fill="#39d353" opacity="1"/><rect x="36" y="175" width="926" height="1" fill="#303d43"/><text x="38" y="201" fill="#8b949e" font-family="monospace" font-size="15">INGENIERÍA DE SISTEMAS  //  PLATAFORMAS DE DATOS  //  AUTOMATIZACIÓN</text></svg>